<svg width="112" height="15" viewBox="0 0 112 15" fill="none" xmlns="http://www.w3.org/2000/svg">
<path d="M111.707 8.07107C112.098 7.68054 112.098 7.04738 111.707 6.65685L105.343 0.292892C104.953 -0.0976319 104.319 -0.0976319 103.929 0.292892C103.538 0.683417 103.538 1.31658 103.929 1.70711L109.586 7.36396L103.929 13.0208C103.538 13.4113 103.538 14.0445 103.929 14.435C104.319 14.8256 104.953 14.8256 105.343 14.435L111.707 8.07107ZM47 7.36396V8.36396H111V7.36396V6.36396H47V7.36396Z" fill="#2ABCED"/>
<path d="M0.292893 6.65685C-0.0976311 7.04738 -0.0976311 7.68054 0.292893 8.07107L6.65685 14.435C7.04738 14.8256 7.68054 14.8256 8.07107 14.435C8.46159 14.0445 8.46159 13.4113 8.07107 13.0208L2.41421 7.36396L8.07107 1.70711C8.46159 1.31658 8.46159 0.683417 8.07107 0.292892C7.68054 -0.0976319 7.04738 -0.0976319 6.65685 0.292892L0.292893 6.65685ZM1 7.36396V8.36396H31V7.36396V6.36396H1V7.36396Z" fill="white" fill-opacity="0.18"/>
</svg>
